Coordinates
version=1
nRows=24
nColumns=24
inDegrees=yes

Units are S.I. units (second, meters, Newtons, ...)
Angles are in degrees.

endheader
time	pelvis_tilt	pelvis_list	pelvis_rotation	pelvis_tx	pelvis_ty	pelvis_tz	hip_flexion_r	hip_adduction_r	hip_rotation_r	knee_angle_r	ankle_angle_r	subtalar_angle_r	mtp_angle_r	hip_flexion_l	hip_adduction_l	hip_rotation_l	knee_angle_l	ankle_angle_l	subtalar_angle_l	mtp_angle_l	lumbar_extension	lumbar_bending	lumbar_rotation
      1.00000000	      4.88193500	     -0.04055456	      0.22350729	      0.59294668	      1.04448768	      0.04558316	     -2.66109585	      1.88567029	     -3.61719156	    -11.75691808	      8.04643151	     -0.00000115	      0.00000000	     18.73944186	     -3.12304948	     -4.27262625	    -57.79145402	      1.42187924	     -0.00000135	      0.00000000	    -16.35953138	      1.02004999	      1.14935860
      1.01666667	      4.93111794	     -0.06157213	     -0.02508056	      0.59104253	      1.04441425	      0.04667047	     -4.13402822	      1.99938091	     -3.41408692	    -10.99351710	      8.43927714	     -0.00000113	      0.00000000	     19.43494378	     -3.13757659	     -4.68350717	    -53.53330759	      1.67572986	     -0.00000253	      0.00000000	    -16.49143836	      0.88446397	      1.49728067
      1.03333333	      4.95755024	     -0.28363337	     -0.21625237	      0.58908393	      1.04389316	      0.04787059	     -5.67111948	      2.33608767	     -3.27812669	    -10.05667790	      8.74113468	     -0.00000131	      0.00000000	     19.94729450	     -3.52520030	     -5.42954637	    -48.78267770	      1.63795254	     -0.00000374	      0.00000000	    -16.63761350	      0.99942777	      1.83004200
      1.05000000	      5.10428582	     -0.62187071	     -0.33456127	      0.58713806	      1.04322655	      0.04857523	     -7.30589583	      2.76074772	     -3.19584531	     -9.20434708	      9.03784558	     -0.00000125	      0.00000000	     20.08897748	     -4.03411923	     -6.42177229	    -43.52157784	      1.28777832	     -0.00000495	      0.00000000	    -16.96673551	      1.23156486	      1.96211905
      1.06666667	      4.98174566	     -1.20878472	     -0.62399580	      0.58503445	      1.04153416	      0.04943315	     -8.56559873	      3.40681078	     -2.86739905	     -8.51200702	      9.37122800	     -0.00000117	      0.00000000	     20.35717917	     -4.81578466	     -7.68907788	    -38.02099596	      0.75248840	     -0.00000601	      0.00000000	    -16.83174786	      1.75466013	      2.44385256
      1.08333333	      4.89605194	     -1.60712777	     -0.87640458	      0.58333995	      1.03961901	      0.04970690	     -9.93546940	      3.79589256	     -2.42542580	     -7.76518127	      9.74010167	     -0.00000132	      0.00000000	     20.30588400	     -5.22213360	     -9.02595460	    -32.11466112	     -0.00708801	     -0.00000645	      0.00000000	    -16.88835337	      1.97196555	      2.63105524
      1.10000000	      4.74215621	     -2.16368994	     -1.13531386	      0.58204796	      1.03719124	      0.05019689	    -11.31810192	      4.34668174	     -1.95645720	     -6.93248971	     10.03542012	     -0.00000110	      0.00000000	     20.29858145	     -5.64515151	    -10.02276817	    -26.35492338	     -0.71125211	     -0.00000617	      0.00000000	    -16.74441058	      2.42637554	      3.01732208
      1.11666667	      4.53787064	     -2.63654437	     -1.38734816	      0.58076606	      1.03439319	      0.05041665	    -12.51958350	      4.78081307	     -1.36727612	     -6.40597943	     10.49265510	     -0.00000099	      0.00000000	     20.20976448	     -5.77538960	    -10.42561075	    -20.54995944	     -1.30667627	     -0.00000547	      0.00000000	    -16.62382106	      2.79630519	      3.09677221
      1.13333333	      4.39136197	     -3.19192406	     -1.87211897	      0.57919806	      1.03132993	      0.05039027	    -13.65023144	      5.19152018	     -0.51189237	     -6.14573254	     11.03907852	     -0.00000097	      0.00000000	     20.05978580	     -5.96110543	    -10.25415077	    -15.14359427	     -1.60684870	     -0.00000430	      0.00000000	    -16.60363376	      3.12902680	      3.58734344
      1.15000000	      4.45583682	     -3.69243322	     -2.10621093	      0.57839216	      1.02842907	      0.04990138	    -15.07144959	      5.55792795	      0.11062304	     -5.82379381	     11.52238933	     -0.00000094	      0.00000000	     19.52546701	     -5.98441580	     -9.22821289	     -9.96294938	     -1.71091297	     -0.00000326	      0.00000000	    -16.72373702	      3.55915466	      3.92649538
      1.16666667	      4.41055118	     -4.03210216	     -2.45203345	      0.57800704	      1.02513646	      0.04972609	    -16.43637184	      5.72475713	      0.66885257	     -5.44423022	     11.97587349	     -0.00000085	      0.00000000	     19.17004075	     -5.99638374	     -8.00989821	     -5.74021939	     -1.49967218	     -0.00000216	      0.00000000	    -16.82268496	      3.58990933	      3.87735918
      1.18333333	      4.52560889	     -4.37430285	     -2.99552310	      0.57745569	      1.02225111	      0.04932057	    -17.71597926	      5.75942430	      1.36427674	     -5.56946470	     12.50700173	     -0.00000074	      0.00000000	     18.72148952	     -6.14264245	     -6.99165213	     -2.63839287	     -1.09828485	     -0.00000139	      0.00000000	    -16.93919830	      3.70750200	      4.51367194
      1.20000000	      4.42266953	     -4.48888753	     -3.25955352	      0.57775074	      1.01922264	      0.04882388	    -18.84257815	      5.65315368	      1.70467734	     -5.57053760	     12.87676941	     -0.00000046	      0.00000000	     18.64506685	     -6.05673746	     -5.99005770	     -0.77853715	     -0.73175845	     -0.00000095	      0.00000000	    -16.84103136	      3.48622873	      4.22326573
      1.21666667	      4.53321381	     -4.59912727	     -3.50755187	      0.57730833	      1.01696721	      0.04803411	    -19.75504924	      5.50779517	      2.07416120	     -6.35452188	     13.37733847	     -0.00000019	      0.00000000	     18.74019875	     -6.00776114	     -5.17960293	     -0.66825969	     -0.39535094	     -0.00000078	      0.00000000	    -17.04673008	      3.25185929	      4.32635515
      1.23333333	      4.62723607	     -4.50552944	     -3.84428616	      0.57763783	      1.01512771	      0.04700519	    -20.53757325	      5.09795309	      2.51783511	     -7.36838611	     13.80921779	      0.00000006	      0.00000000	     18.86729497	     -5.77559301	     -4.69894357	     -1.64139048	     -0.40072583	     -0.00000094	      0.00000000	    -17.09136430	      2.75391524	      4.24563923
      1.25000000	      4.56271673	     -4.32527815	     -4.44568872	      0.57911118	      1.01369049	      0.04537284	    -21.01164678	      4.46100259	      3.16513350	     -8.74870824	     14.10828442	      0.00000045	      0.00000000	     19.13722010	     -5.50819205	     -4.60879659	     -3.51827484	     -0.77022309	     -0.00000117	      0.00000000	    -16.85101981	      2.26716541	      4.49527570
      1.26666667	      4.41813823	     -4.05798674	     -4.49377644	      0.58124385	      1.01233879	      0.04349616	    -21.19427316	      3.97767686	      3.28065253	    -10.55725739	     14.33069886	      0.00000090	      0.00000000	     19.69549300	     -5.03357484	     -4.13362616	     -6.09772392	     -1.53697058	     -0.00000150	      0.00000000	    -16.38774217	      1.71461902	      4.31052025
      1.28333333	      4.20076057	     -4.17517999	     -4.69950583	      0.58217902	      1.01135242	      0.04214013	    -20.83483175	      3.88768885	      3.58505086	    -13.17516335	     14.35444585	      0.00000139	      0.00000000	     20.26315696	     -5.06402471	     -3.87723808	     -8.67330438	     -2.64795725	     -0.00000175	      0.00000000	    -16.15644224	      1.41323548	      4.25165252
      1.30000000	      4.10268025	     -4.00758227	     -4.93621017	      0.58467032	      1.01114843	      0.04055859	    -20.63922789	      3.45181476	      3.74980407	    -15.72791147	     13.86577758	      0.00000196	      0.00000000	     20.58796620	     -4.83100844	     -3.88664808	    -11.30841755	     -3.50373683	     -0.00000191	      0.00000000	    -15.80394397	      0.71996548	      4.14428123
      1.31666667	      4.22476063	     -3.71149957	     -5.12423845	      0.58770495	      1.01177919	      0.03872318	    -20.14475123	      2.89400931	      3.76755361	    -19.24065921	     13.04413357	      0.00000257	      0.00000000	     20.51950529	     -4.45370021	     -4.06201733	    -13.76260312	     -4.01195522	     -0.00000198	      0.00000000	    -15.60577456	     -0.05731288	      3.85683159
      1.33333333	      4.41868722	     -3.43777371	     -5.17081446	      0.59086297	      1.01292167	      0.03666260	    -19.19141806	      2.39400524	      3.44224599	    -23.61590070	     11.65761410	      0.00000329	      0.00000000	     20.20499809	     -4.05580244	     -4.13413205	    -15.96163877	     -4.10642271	     -0.00000215	      0.00000000	    -15.44501893	     -0.75915484	      3.62290217
      1.35000000	      4.86697587	     -3.06503843	     -5.08276773	      0.59419491	      1.01484713	      0.03406359	    -17.96986930	      1.71633278	      2.57970524	    -28.70517269	      9.37696751	      0.00000402	      0.00000000	     19.37269780	     -3.47475291	     -4.16815135	    -17.76301654	     -3.83670301	     -0.00000226	      0.00000000	    -15.51593263	     -1.49080501	      3.26983608
      1.36666667	      5.15658089	     -2.63363640	     -4.84392697	      0.59723777	      1.01669901	      0.03071704	    -15.97278095	      0.84357622	      1.11439853	    -34.49521549	      6.06284580	      0.00000456	      0.00000000	     18.48872219	     -2.76736833	     -4.13795634	    -19.12518990	     -3.29326337	     -0.00000232	      0.00000000	    -15.46802345	     -2.16026524	      2.69915847
      1.38333333	      5.31084388	     -2.09656727	     -4.69378834	      0.59961810	      1.01843691	      0.02706626	    -13.29353551	     -0.43480321	     -0.66525289	    -40.67071020	      1.86307117	      0.00000472	      0.00000000	     17.50187176	     -1.95530930	     -4.24021584	    -19.99435938	     -2.54272642	     -0.00000221	      0.00000000	    -15.39060197	     -2.84599118	      2.30687143
